<svg width="232" height="70" viewBox="0 0 232 70" fill="none" xmlns="http://www.w3.org/2000/svg">
<path fill-rule="evenodd" clip-rule="evenodd" d="M80.4415 0.996094C80.4415 0.996094 69.2505 1.00441 64.8307 1.00441C64.7414 1.00441 64.669 1.07709 64.669 1.16675V53.7166C64.669 53.7486 64.6784 53.78 64.6961 53.8066L72.6181 65.7388C72.6821 65.8352 72.8231 65.8352 72.8871 65.7388L80.8091 53.8066C80.8268 53.78 80.8362 53.7486 80.8362 53.7166V29.9409C80.8362 29.7805 81.0432 29.7173 81.1322 29.8505L105.06 65.664C105.278 65.9914 105.189 65.9414 105.708 65.9414H121.093C121.182 65.9414 121.254 65.8688 121.254 65.7791V25.5181C121.254 25.4285 121.182 25.3558 121.093 25.3558H105.249C105.159 25.3558 105.087 25.4285 105.087 25.5181V36.0322C105.087 36.1926 104.88 36.2558 104.791 36.1226L81.3227 0.996094H80.4415ZM16.0056 1.00441C16.0949 1.00441 16.1672 1.0771 16.1672 1.16675V41.5844C16.1672 41.5864 16.1683 41.5882 16.17 41.5892C16.1708 41.5898 16.1718 41.59 16.1729 41.59C16.176 41.59 16.1785 41.5926 16.1785 41.5957C16.18 44.8199 17.4561 47.9116 19.7267 50.1916C21.9985 52.4728 25.0798 53.7544 28.2927 53.7544C31.5056 53.7544 34.5868 52.4728 36.8587 50.1916C39.1292 47.9116 40.4054 44.8199 40.4069 41.5957C40.4069 41.5926 40.4094 41.59 40.4125 41.59C40.4156 41.59 40.4181 41.5875 40.4181 41.5844V13.2293C40.4181 13.1972 40.4276 13.1659 40.4453 13.1392L48.3672 1.20703C48.4312 1.11064 48.5723 1.11064 48.6363 1.20703L56.5582 13.1392C56.5759 13.1659 56.5854 13.1972 56.5854 13.2293V41.59C56.5854 49.1248 53.6045 56.351 48.2986 61.6789C42.9927 67.0068 35.7964 70 28.2927 70C20.789 70 13.5926 67.0068 8.28673 61.6789C2.98083 56.351 0 49.1248 0 41.59V1.16676C0 1.0771 0.0723832 1.00441 0.161672 1.00441H16.0056ZM191.744 1.00441C191.654 1.00441 191.582 1.0771 191.582 1.16675V65.7791C191.582 65.8688 191.654 65.9414 191.744 65.9414H207.749H231.838C231.928 65.9414 232 65.8688 232 65.7791V49.8695C232 49.7799 231.928 49.7072 231.838 49.7072H207.911C207.822 49.7072 207.749 49.6345 207.749 49.5448V41.7524C207.749 41.6627 207.822 41.59 207.911 41.59H219.713C219.802 41.59 219.875 41.5174 219.875 41.4277V25.5181C219.875 25.4285 219.802 25.3558 219.713 25.3558H207.911C207.822 25.3558 207.749 25.2831 207.749 25.1934V17.401C207.749 17.3113 207.822 17.2387 207.911 17.2387H219.826C219.858 17.2387 219.889 17.2292 219.915 17.2114L231.798 9.25662C231.894 9.19236 231.894 9.05072 231.798 8.98646L219.915 1.03168C219.889 1.0139 219.858 1.00441 219.826 1.00441H207.749H191.744Z" fill="#FCFCFC"/>
<path fill-rule="evenodd" clip-rule="evenodd" d="M144.803 25.3475C144.893 25.3475 144.965 25.4202 144.965 25.5098V49.5365C144.965 49.6262 145.037 49.6989 145.127 49.6989H153.048L153.049 49.6998L153.05 49.7008C157.338 49.7005 161.45 47.99 164.482 44.9453C167.514 41.9004 169.218 37.7707 169.218 33.4646C169.218 29.1585 167.514 25.0288 164.482 21.9839C161.45 18.9392 157.338 17.2287 153.05 17.2284L153.049 17.2294L153.048 17.2303H116.82C116.788 17.2303 116.757 17.2209 116.73 17.2031L104.847 9.2483C104.751 9.18404 104.751 9.0424 104.847 8.97814L116.73 1.02336C116.757 1.00558 116.788 0.996094 116.82 0.996094H153.049C161.624 0.996094 169.849 4.41687 175.913 10.5059C181.977 16.5949 185.383 24.8534 185.383 33.4646C185.383 42.0758 181.977 50.3343 175.913 56.4233C169.849 62.5123 161.624 65.9331 153.049 65.9331H144.965H128.96C128.87 65.9331 128.798 65.8604 128.798 65.7708V25.5098C128.798 25.4202 128.87 25.3475 128.96 25.3475H144.803Z" fill="#FCFCFC"/>
</svg>
