<svg width="46" height="46" viewBox="0 0 46 46" fill="none" xmlns="http://www.w3.org/2000/svg">
<circle cx="23" cy="23" r="23" fill="#272727"/>
<path d="M28.1811 31.815C27.0786 32.8838 25.8748 32.715 24.7161 32.2087C23.4898 31.6912 22.3648 31.6687 21.0711 32.2087C19.4511 32.9062 18.5961 32.7038 17.6286 31.815C12.1386 26.1563 12.9486 17.5388 19.1811 17.2238C20.6998 17.3025 21.7573 18.0562 22.6461 18.1237C23.9736 17.8537 25.2448 17.0775 26.6623 17.1788C28.3611 17.3137 29.6436 17.9887 30.4873 19.2037C26.9773 21.3075 27.8098 25.9313 31.0273 27.225C30.3861 28.9125 29.5536 30.5888 28.1698 31.8263L28.1811 31.815ZM22.5336 17.1562C22.3648 14.6475 24.4011 12.5775 26.7411 12.375C27.0673 15.2775 24.1086 17.4375 22.5336 17.1562Z" fill="#FCFCFC"/>
</svg>
