<svg width="46" height="46" viewBox="0 0 46 46" fill="none" xmlns="http://www.w3.org/2000/svg">
<g clip-path="url(#clip0_560_170037)">
<path fill-rule="evenodd" clip-rule="evenodd" d="M23 0C10.2963 0 0 10.2983 0 23C0 35.7017 10.2963 46 23 46C35.7017 46 46 35.7017 46 23C46 10.2983 35.7017 0 23 0ZM23.2683 36.4512C15.8547 36.4512 9.85167 30.4328 9.85167 23C9.85167 15.5672 15.8547 9.54883 23.2683 9.54883C26.8908 9.54883 29.9192 10.8847 32.2422 13.0544L28.4587 16.8456V16.8379C27.0499 15.4924 25.2636 14.8024 23.2683 14.8024C18.8408 14.8024 15.2432 18.5514 15.2432 22.9923C15.2432 27.4294 18.8408 31.1899 23.2683 31.1899C27.2857 31.1899 30.0188 28.8861 30.5823 25.7236H23.2683V20.4777H35.8896C36.0582 21.3785 36.1483 22.3177 36.1483 23.3028C36.1483 30.9887 31.0174 36.4512 23.2683 36.4512V36.4512Z" fill="#272727"/>
</g>
<defs>
<clipPath id="clip0_560_170037">
<rect width="46" height="46" fill="white"/>
</clipPath>
</defs>
</svg>
