<svg width="88" height="26" viewBox="0 0 88 26" fill="none" xmlns="http://www.w3.org/2000/svg">
<path fill-rule="evenodd" clip-rule="evenodd" d="M30.5123 0.00390625C30.5123 0.00390625 26.2674 0.00704005 24.5909 0.00704005C24.5571 0.00704005 24.5296 0.0344208 24.5296 0.0681985V19.8655C24.5296 19.8776 24.5332 19.8894 24.5399 19.8994L27.5448 24.3947C27.5691 24.431 27.6226 24.431 27.6468 24.3947L30.6517 19.8994C30.6584 19.8894 30.662 19.8776 30.662 19.8655V10.9084C30.662 10.848 30.7405 10.8241 30.7743 10.8743L39.8502 24.3665C39.9332 24.4898 39.8992 24.471 40.0963 24.471H45.9317C45.9656 24.471 45.993 24.4436 45.993 24.4098V9.24219C45.993 9.20841 45.9656 9.18103 45.9317 9.18103H39.9219C39.8881 9.18103 39.8606 9.20841 39.8606 9.24219V13.2032C39.8606 13.2636 39.7821 13.2874 39.7484 13.2373L30.8465 0.00390625H30.5123ZM6.07108 0.00704005C6.10495 0.00704005 6.1324 0.0344223 6.1324 0.0681999V15.2949C6.1324 15.2957 6.13282 15.2963 6.13343 15.2967C6.13376 15.2969 6.13413 15.297 6.13454 15.297C6.13572 15.297 6.13668 15.298 6.13668 15.2991C6.13724 16.5138 6.6213 17.6786 7.48253 18.5375C8.34426 19.3969 9.51303 19.8797 10.7317 19.8797C11.9504 19.8797 13.1191 19.3969 13.9809 18.5375C14.8421 17.6786 15.3262 16.5138 15.3267 15.2992C15.3267 15.298 15.3277 15.297 15.3289 15.297C15.3301 15.297 15.331 15.2961 15.331 15.2949V4.61255C15.331 4.60048 15.3346 4.58867 15.3413 4.57863L18.3462 0.083372C18.3705 0.0470594 18.424 0.0470596 18.4482 0.0833723L21.4531 4.57863C21.4598 4.58867 21.4634 4.60048 21.4634 4.61255V15.297C21.4634 18.1356 20.3328 20.858 18.3202 22.8652C16.3076 24.8724 13.5779 26 10.7317 26C7.88548 26 5.15583 24.8724 3.14324 22.8652C1.13066 20.858 0 18.1356 0 15.297V0.0682001C0 0.0344224 0.0274557 0.00704005 0.061324 0.00704005H6.07108ZM72.7303 0.00704005C72.6964 0.00704005 72.669 0.0344223 72.669 0.0681999V24.4098C72.669 24.4436 72.6964 24.471 72.7303 24.471H78.8014H87.9387C87.9725 24.471 88 24.4436 88 24.4098V18.4162C88 18.3824 87.9725 18.355 87.9387 18.355H78.8627C78.8289 18.355 78.8014 18.3276 78.8014 18.2939V15.3582C78.8014 15.3244 78.8289 15.297 78.8627 15.297H83.3394C83.3732 15.297 83.4007 15.2696 83.4007 15.2359V9.24219C83.4007 9.20841 83.3732 9.18102 83.3394 9.18102H78.8627C78.8289 9.18102 78.8014 9.15364 78.8014 9.11986V6.18419C78.8014 6.15041 78.8289 6.12303 78.8627 6.12303H83.3821C83.3942 6.12303 83.4061 6.11946 83.4161 6.11276L87.9235 3.11592C87.9599 3.09172 87.9599 3.03836 87.9235 3.01415L83.4161 0.0173117C83.4061 0.010614 83.3942 0.00704005 83.3821 0.00704005H78.8014H72.7303Z" fill="#69C182"/>
<path fill-rule="evenodd" clip-rule="evenodd" d="M54.9268 9.17789C54.9607 9.17789 54.9881 9.20527 54.9881 9.23905V18.2907C54.9881 18.3245 55.0156 18.3519 55.0494 18.3519H58.054L58.0543 18.3522L58.0547 18.3526C59.6812 18.3525 61.241 17.7081 62.3911 16.5611C63.5413 15.4139 64.1875 13.8581 64.1875 12.2359C64.1875 10.6136 63.5413 9.05782 62.3911 7.91071C61.241 6.76369 59.6812 6.11927 58.0547 6.11917L58.0543 6.11953L58.054 6.1199H44.3123C44.3002 6.1199 44.2883 6.11632 44.2783 6.10962L39.771 3.11279C39.7346 3.08858 39.7346 3.03522 39.771 3.01101L44.2783 0.0141779C44.2883 0.00748022 44.3002 0.00390625 44.3123 0.00390625H58.0543C61.3071 0.00390634 64.4267 1.29263 66.7268 3.58657C69.0269 5.88051 70.3191 8.99177 70.3191 12.2359C70.3191 15.48 69.0269 18.5913 66.7268 20.8852C64.4267 23.1791 61.3071 24.4679 58.0543 24.4679H54.9881H48.917C48.8832 24.4679 48.8557 24.4405 48.8557 24.4067V9.23905C48.8557 9.20527 48.8832 9.17789 48.917 9.17789H54.9268Z" fill="#69C182"/>
</svg>
