<svg width="21" height="14" viewBox="0 0 21 14" fill="none" xmlns="http://www.w3.org/2000/svg">
<path d="M12.8731 0.161826L20.7479 6.49836C20.9096 6.63293 21 6.8128 21 7C21 7.1872 20.9096 7.36707 20.7479 7.50164L12.8731 13.8382C12.7031 13.9504 12.4873 14.0078 12.2676 13.9991C12.0479 13.9905 11.8401 13.9163 11.6846 13.7912C11.5291 13.6661 11.437 13.4989 11.4262 13.3221C11.4154 13.1454 11.4867 12.9717 11.6263 12.8349L18.0136 7.70406L0.874977 7.70406C0.642919 7.70406 0.420365 7.62988 0.256275 7.49785C0.092185 7.36581 0 7.18673 0 7C0 6.81327 0.092185 6.63419 0.256275 6.50216C0.420365 6.37012 0.642919 6.29594 0.874977 6.29594L18.0136 6.29594L11.6263 1.16511C11.4867 1.02831 11.4154 0.85465 11.4262 0.677894C11.437 0.501138 11.5291 0.33393 11.6846 0.208794C11.8401 0.0836582 12.0479 0.00954151 12.2676 0.000860214C12.4873 -0.00782108 12.7031 0.0495548 12.8731 0.161826Z" fill="#272727"/>
</svg>
